<svg id="Layer_1" data-name="Layer 1" xmlns="http://www.w3.org/2000/svg" viewBox="0 0 494.05 510.52"><defs><style>.cls-1{fill:#fff;stroke:#6ec5a3;stroke-miterlimit:10;stroke-width:19px;}.cls-2{font-size:202px;fill:#6ec5a3;font-family:MyriadPro-Regular, Myriad Pro;}</style></defs><path class="cls-1" d="M429.25,103.61c.69,6.4-9.32,6.33-10,0a40.63,40.63,0,0,1,.14-9.62L269.21,226.15a34.16,34.16,0,0,1,6.29,35.38,22.54,22.54,0,0,1-3.32,5.59L458.86,432.68c3.48-1.1,7-2.06,10.59-2.87a118.73,118.73,0,0,1,15.1-4.64V36.65L434.27,80.9C430.5,87.86,428.38,95.44,429.25,103.61Z"/><path class="cls-1" d="M228.09,228,25.61,48.43a59.41,59.41,0,0,1-11,11.13C13.05,60.82,11.44,62,9.8,63.18c5.46,88.61,36.66,336.05,215.24,199-4.61-7.09-5.34-17.4-2.88-25.11A20.58,20.58,0,0,1,228.09,228Z"/><path class="cls-1" d="M225.62,263,34.06,432.93a4.93,4.93,0,0,1-.39.4h.12l192.5-169.41C226.06,263.64,225.83,263.34,225.62,263Z"/><text class="cls-2" transform="translate(183.94 460.02)">A</text><text class="cls-2" transform="translate(338.14 311.39)">D</text><text class="cls-2" transform="translate(178.16 169.08)">O</text></svg>