<svg version="1.1" id="Uploaded to svgrepo.com" xmlns="http://www.w3.org/2000/svg" xmlns:xlink="http://www.w3.org/1999/xlink" x="0px" y="0px"
	 width="32px" height="32px" viewBox="0 0 32 32" style="enable-background:new 0 0 32 32;" xml:space="preserve">
<style type="text/css">
	.sharpcorners_een{fill:#111918;}
	.st0{fill:#0B1719;}
</style>
<path class="sharpcorners_een" d="M8,3c0-0.552,1-2,1-2s1,1.448,1,2c0,0.552-0.448,1-1,1S8,3.552,8,3z M6,4c0.552,0,1-0.448,1-1
	c0-0.552-1-2-1-2S5,2.448,5,3C5,3.552,5.448,4,6,4z M3,4c0.552,0,1-0.448,1-1c0-0.552-1-2-1-2S2,2.448,2,3C2,3.552,2.448,4,3,4z
	 M26,4c0.552,0,1-0.448,1-1c0-0.552-1-2-1-2s-1,1.448-1,2C25,3.552,25.448,4,26,4z M28,19H17v-1h10V5h-2v11h-8v-1h7V5h-2v8h-5v-1h4
	V5h-2v5h-2V5h-2v5h-2V5h-2v7h4v1h-5V5H8v10h7v1H7V5H5v13h10v1H4V5H2v16h13v5h-1l-1,2h6l-1-2h-1v-5h13V5h-2V19z M29,4
	c0.552,0,1-0.448,1-1c0-0.552-1-2-1-2s-1,1.448-1,2C28,3.552,28.448,4,29,4z M12,4c0.552,0,1-0.448,1-1c0-0.552-1-2-1-2
	s-1,1.448-1,2C11,3.552,11.448,4,12,4z M16,4c0.552,0,1-0.448,1-1c0-0.552-1-2-1-2s-1,1.448-1,2C15,3.552,15.448,4,16,4z M20,4
	c0.552,0,1-0.448,1-1c0-0.552-1-2-1-2s-1,1.448-1,2C19,3.552,19.448,4,20,4z M23,4c0.552,0,1-0.448,1-1c0-0.552-1-2-1-2
	s-1,1.448-1,2C22,3.552,22.448,4,23,4z M10,31h12v-2H10V31z"/>
</svg>