<svg id="Layer_1" fill="#ffffff" data-name="Layer 1" xmlns="http://www.w3.org/2000/svg" viewBox="0 0 85.15 94.12"><path d="M66.78,0H20.15a1.42,1.42,0,0,0-1.3,1,1.83,1.83,0,0,0,.27,1.77L28,13.82a6.66,6.66,0,0,0,5.16,2.59H64c2.33,0,4.23,2.21,4.23,4.93s-1.9,4.92-4.23,4.92H42.76a1.44,1.44,0,0,0-1.3,1A1.83,1.83,0,0,0,41.73,29l8.92,11.06a6.66,6.66,0,0,0,5.15,2.59h11c10.13,0,18.37-9.57,18.37-21.33S76.91,0,66.78,0Z"/><path d="M55.09,94.12H2.38a1.6,1.6,0,0,1-1.47-1,1.68,1.68,0,0,1,.3-1.77l10.09-11a7.91,7.91,0,0,1,5.83-2.59H51.89a4.91,4.91,0,0,0,0-9.81h-24a1.58,1.58,0,0,1-1.46-1,1.66,1.66,0,0,1,.3-1.77l10.08-11a8,8,0,0,1,5.83-2.58H55.09c11.44,0,20.76,9.54,20.76,21.26A21,21,0,0,1,55.09,94.12Z"/><path d="M0,39,.64,92a1.62,1.62,0,0,0,1,1.47,1.64,1.64,0,0,0,1.75-.33L14.22,82.87A8,8,0,0,0,16.71,77l-.42-35A4.88,4.88,0,0,1,26,41.86L26.33,66a1.61,1.61,0,0,0,1,1.46,1.63,1.63,0,0,0,1.75-.32L39.91,56.83a8.06,8.06,0,0,0,2.5-5.89l-.15-12.49A21.13,21.13,0,0,0,0,39Z"/></svg>